<svg width="32" height="32" xmlns="http://www.w3.org/2000/svg">
 <title>htmlacademy</title>

 <g>
  <title>background</title>
  <rect fill="none" id="canvas_background" height="602" width="802" y="-1" x="-1"/>
 </g>
 <g>
  <title>Layer 1</title>
  <path id="svg_1" d="m16.128,0.001l-0.128,0l-12.608,1.344l0,23.168l12.608,7.488l12.608,-7.488l0,-23.168l-12.48,-1.344zm10.88,23.551l-11.008,6.528l-11.008,-6.528l0,-9.472l10.944,6.528l0,1.152l-7.488,-4.48l0,1.152l7.552,4.544l0,1.216l-7.552,-4.48l0,1.152l7.552,4.48l7.616,-4.544l0,-4.864l3.392,-2.048l0,9.664zm-0.064,-10.88l-3.008,1.792l-1.408,0.832l-6.592,-3.904l0,1.152l5.632,3.392l-0.064,0l-0.128,0.064l-0.832,0.448l-4.672,-2.752l0,1.152l3.712,2.176l-0.896,0.576l-2.752,-1.664l0,1.152l1.856,1.088l-1.856,1.088l-10.88,-6.464l10.88,-6.528l11.008,6.4zm0.064,-1.152l-11.072,-6.528l-10.944,6.528l0,-8.704l11.008,-1.152l11.008,1.152l0,8.704z" fill="#ffd700"/>
 </g>
</svg>